<svg xmlns="http://www.w3.org/2000/svg" viewBox="0 0 85 85" width="85" height="85"><style>tspan { white-space:pre }.shp0 { fill: #ffffff } </style><path class="shp0" d="M64.04 47.29C54.5 61.35 51.12 65.36 51.68 73.5C52.24 81.64 50.63 83.88 46.79 84.28C42.95 84.68 35.73 82.58 34.46 69.26C33.91 63.5 38.03 52.14 38.03 52.14C38.03 52.14 11.81 52.13 9.26 52.13C5.19 52.13 2 50.38 2 44.82C2 39.61 7.75 38.04 7.75 38.04C7.75 38.04 4.07 36.6 4.07 32.22C4.07 27.78 7.9 25.78 10.43 25.78C8.86 25 6.66 23.5 7.15 19.7C7.63 15.91 10.33 14.53 13 13.71C11.27 12.64 10.02 9.69 10.98 7.42C12.27 4.37 15.68 1 23.33 1C32.6 1 58.08 1 59.09 1C61.8 1 63.82 2.24 64.24 3.77C64.24 6.9 64.24 45.59 64.24 45.59C64.24 45.59 64.24 46.94 64.04 47.29ZM66.76 1L80.75 1L80.75 50.01L66.76 50.01L66.76 1ZM69.01 1L83 1L83 50.01L69.01 50.01L69.01 1Z" /></svg>