<svg xmlns="http://www.w3.org/2000/svg" viewBox="0 0 38 40" width="38" height="40"><style>tspan { white-space:pre }.shp0 { fill: #ffffff } </style><path class="shp0" d="M9.43 17.45C13.67 11.2 15.17 9.42 14.92 5.81C14.67 2.19 15.39 1.2 17.09 1.02C18.8 0.84 22.01 1.77 22.57 7.69C22.82 10.25 20.99 15.29 20.99 15.29C20.99 15.29 32.64 15.3 33.77 15.3C35.58 15.3 37 16.07 37 18.54C37 20.86 34.44 21.55 34.44 21.55C34.44 21.55 36.08 22.19 36.08 24.14C36.08 26.11 34.38 27 33.26 27C33.95 27.35 34.93 28.01 34.71 29.7C34.5 31.38 33.3 32 32.11 32.36C32.88 32.83 33.44 34.14 33.01 35.15C32.44 36.51 30.92 38 27.52 38C23.4 38 12.08 38 11.62 38C10.42 38 9.53 37.45 9.34 36.77C9.34 35.38 9.34 18.2 9.34 18.2C9.34 18.2 9.34 17.6 9.43 17.45ZM2 16.25L8.22 16.25L8.22 38L2 38L2 16.25ZM1 16.25L7.22 16.25L7.22 38L1 38L1 16.25Z" /><path class="shp0" d="M522.57 581.57C518.33 587.82 516.83 589.61 517.08 593.22C517.33 596.84 516.61 597.84 514.91 598.01C513.2 598.19 509.99 597.26 509.43 591.34C509.18 588.78 511.01 583.73 511.01 583.73C511.01 583.73 499.36 583.72 498.23 583.72C496.42 583.72 495 582.95 495 580.48C495 578.16 497.56 577.46 497.56 577.46C497.56 577.46 495.92 576.82 495.92 574.87C495.92 572.9 497.62 572.01 498.74 572.01C498.05 571.67 497.07 571 497.29 569.31C497.5 567.62 498.7 567.01 499.89 566.65C499.12 566.17 498.56 564.86 498.99 563.85C499.56 562.5 501.08 561 504.48 561C508.6 561 519.92 561 520.38 561C521.58 561 522.47 561.55 522.66 562.23C522.66 563.62 522.66 580.82 522.66 580.82C522.66 580.82 522.66 581.42 522.57 581.57ZM523.78 561L530 561L530 582.78L523.78 582.78L523.78 561ZM524.78 561L531 561L531 582.78L524.78 582.78L524.78 561Z" /></svg>