<svg xmlns="http://www.w3.org/2000/svg" viewBox="0 0 29 29" width="29" height="29"><style>tspan { white-space:pre }.shp0 { fill: #ffffff } </style><path class="shp0" d="M12.26 2.59C16.66 2.59 20.94 5.47 20.94 11.22C20.94 16.96 16.66 19.84 12.26 19.84C7.86 19.84 3.58 16.96 3.58 11.22C3.58 5.47 7.86 2.59 12.26 2.59ZM12.26 1C7.19 1 2 4.4 2 11.22C2 18.03 7.19 21.43 12.26 21.43C14.17 21.43 16.09 20.95 17.75 19.99L24.42 27L26 25.41L19.56 18.64C21.34 16.94 22.52 14.47 22.52 11.22C22.52 4.4 17.33 1 12.26 1Z" /></svg>